<?xml version="1.0" encoding="UTF-8"?>
<svg width="67.0874576px" height="89.3200727px" viewBox="0 0 67.0874576 89.3200727" version="1.1" xmlns="http://www.w3.org/2000/svg" xmlns:xlink="http://www.w3.org/1999/xlink">
    <title>Rocket</title>
    <defs>
        <linearGradient x1="58.270498%" y1="4.63520102%" x2="43.9184885%" y2="91.0025789%" id="linearGradient-1">
            <stop stop-color="#4A59A4" offset="0%"></stop>
            <stop stop-color="#3EBCED" offset="100%"></stop>
        </linearGradient>
    </defs>
    <g id="Rocket" stroke="none" stroke-width="1" fill="none" fill-rule="evenodd">
        <path d="M27.0499912,37.8645786 L42.3299912,41.2845786 L46.8699912,56.7945786 L48.0499912,58.6645786 C50.0216476,61.7656574 49.1060698,65.8779218 46.0049911,67.8495783 C42.9039123,69.8212348 38.7916479,68.9056572 36.8199912,65.8045786 L35.6499912,63.9345786 L23.6499912,53.1845786 L27.0499912,37.8645786 Z M50.4199912,53.4045786 C49.7437065,53.1097388 49.2570156,52.4995033 49.1199912,51.7745786 C48.3599912,47.7145786 46.0299912,41.4445786 42.8999912,35.0245786 C42.579005,34.3700444 42.6014532,33.5993207 42.9599912,32.9645786 C43.484854,32.1608211 44.4020676,31.7022143 45.3599912,31.7645786 C45.8199912,31.7645786 56.6699912,30.7645786 64.3599912,43.0445786 C70.1999912,52.3145786 64.8799912,55.8445786 64.6499912,55.9845786 C63.6287955,56.6089899 62.2957746,56.3023951 61.6499912,55.2945786 C59.6851645,52.1955651 55.5815014,51.2736953 52.4799912,53.2345786 C51.864941,53.6321147 51.0918898,53.6959102 50.4199912,53.4045786 L50.4199912,53.4045786 Z M15.8399912,50.1845786 C16.5646971,50.1370737 17.2668155,50.4470515 17.7199912,51.0145786 C22.3199912,56.7945786 26.8399912,61.4645786 30.1199912,63.8145786 C30.7207613,64.2452504 31.0690806,64.9456344 31.0499912,65.6845786 C31.029957,66.4170908 30.6575456,67.0948796 30.0499912,67.5045786 C26.9498095,69.4771779 26.0249244,73.5833107 27.9799912,76.6945786 C28.6284627,77.734375 28.3210227,79.10226 27.2899912,79.7645786 C27.0599912,79.9045786 21.6099912,83.2245786 15.7599912,73.9445786 C8.01999124,61.6745786 13.5199912,52.2445786 13.7599912,51.8545786 C14.1090672,50.9691431 14.9000447,50.3340795 15.8399912,50.1845786 L15.8399912,50.1845786 Z M2.50999124,1.43457857 C2.8653348,0.52077224 3.77150789,-0.0577221901 4.74999124,0.00457857082 C11.257311,0.816152329 17.5424588,2.89534716 23.2499912,6.12457857 L14.1299912,17.1245786 L0.129991242,20.7745786 C-0.340258713,14.2345223 0.468132785,7.66549223 2.50999124,1.43457857 L2.50999124,1.43457857 Z M27.4399912,21.8545786 C29.3571228,24.8828322 29.2609681,28.7678341 27.1963758,31.6975392 C25.1317835,34.6272442 21.5054719,36.0245095 18.0088277,35.2376215 C14.5121836,34.4507335 11.8340351,31.6347067 11.223526,28.1029944 C10.613017,24.5712821 12.1904159,21.0196207 15.2199912,19.1045786 C19.3591467,16.5204355 24.8068822,17.7463989 27.4399912,21.8545786 L27.4399912,21.8545786 Z" id="Shape" fill="#F9B233" fill-rule="nonzero"></path>
        <path d="M23.2499912,6.12457857 C30.7215825,10.2291137 37.0181038,16.1779321 41.5399912,23.4045786 C43.2899912,26.1845786 45.1399912,29.5345786 46.8799912,33.0445786 C50.1699912,39.8345786 52.6499912,46.5145786 53.4499912,50.9445786 C53.6368302,51.8428229 53.2358407,52.761089 52.4499912,53.2345786 L46.8399912,56.8045786 L38.5599912,43.6745786 C36.5299059,40.7241902 32.5300595,39.9074858 29.5058493,41.8258682 C26.4816392,43.7442506 25.5159931,47.7107737 27.3199912,50.8045786 L35.6499912,63.9345786 L30.0399912,67.5045786 C29.2831773,67.9877512 28.3081052,67.9600052 27.5799912,67.4345786 C23.9599912,64.8445786 19.0999912,59.8945786 14.2499912,53.7745786 C11.9688973,50.8847691 9.83614637,47.8808946 7.85999124,44.7745786 C3.27049382,37.5685872 0.608787779,29.3045581 0.129991242,20.7745786 L23.2499912,6.12457857 Z M12.4699912,31.3545786 C15.0938976,35.4793789 20.5628754,36.6994782 24.6911584,34.0810547 C28.8194414,31.4626312 30.0468061,25.9952793 27.4338701,21.8635209 C24.820934,17.7317625 19.3552177,16.4971346 15.2199912,19.1045786 C13.220756,20.3556584 11.805085,22.3545244 11.2885007,24.6556725 C10.7719165,26.9568207 11.1973536,29.3689967 12.4699912,31.3545786 L12.4699912,31.3545786 Z M48.3199912,71.6245786 C48.8139026,71.3077039 49.4139403,71.2012849 49.9866981,71.3289817 C50.5594559,71.4566786 51.0574607,71.807907 51.3699912,72.3045786 L60.0399912,86.0145786 C60.6158186,87.0420889 60.2889456,88.3404472 59.2952303,88.9728114 C58.3015151,89.6051757 56.9869149,89.3513913 56.2999912,88.3945786 L47.6499912,74.6845786 C46.9929382,73.6540452 47.2924213,72.2862566 48.3199912,71.6245786 L48.3199912,71.6245786 Z M43.8799912,77.0645786 L46.2499912,80.8145786 C46.8258186,81.8420889 46.4989456,83.1404472 45.5052303,83.7728114 C44.5115151,84.4051757 43.1969149,84.1513913 42.5099912,83.1945786 L40.1399912,79.4445786 C39.4857222,78.4057737 39.794144,77.0335202 40.8299912,76.3745786 C41.3251209,76.0586066 41.9260424,75.9537453 42.4989253,76.0833483 C43.0718082,76.2129513 43.569079,76.5662561 43.8799912,77.0645786 Z M57.4799912,73.6845786 L55.1199912,69.9345786 C54.8030484,69.4363376 54.6976672,68.8323547 54.8271564,68.2562216 C54.9566456,67.6800884 55.310334,67.179284 55.8099912,66.8645786 C56.3051209,66.5486066 56.9060424,66.4437453 57.4789253,66.5733483 C58.0518082,66.7029513 58.549079,67.0562561 58.8599912,67.5545786 L61.2299912,71.3045786 C61.88721,72.3401125 61.580525,73.7123596 60.5449912,74.3695784 C59.5094573,75.0267973 58.1372101,74.7201124 57.4799912,73.6845786 L57.4799912,73.6845786 Z" id="Shape" fill="url(#linearGradient-1)" fill-rule="nonzero"></path>
    </g>
</svg>