<?xml version="1.0" encoding="UTF-8" standalone="no"?><svg xmlns="http://www.w3.org/2000/svg" xmlns:xlink="http://www.w3.org/1999/xlink" contentStyleType="text/css" height="1091px" preserveAspectRatio="none" style="width:1040px;height:1091px;background:#FFFFFF;" version="1.1" viewBox="0 0 1040 1091" width="1040px" zoomAndPan="magnify"><defs/><g><!--MD5=[51949889853c7bda9109f5678b6ff023]
cluster auth0--><g id="cluster_auth0"><path d="M8.5,446.78 L54.5,446.78 A3.75,3.75 0 0 1 57,449.28 L64,469.0769 L546.5,469.0769 A2.5,2.5 0 0 1 549,471.5769 L549,636.34 A2.5,2.5 0 0 1 546.5,638.84 L8.5,638.84 A2.5,2.5 0 0 1 6,636.34 L6,449.28 A2.5,2.5 0 0 1 8.5,446.78 " style="stroke:#000000;stroke-width:1.5;fill:none;"/><line style="stroke:#000000;stroke-width:1.5;fill:none;" x1="6" x2="64" y1="469.0769" y2="469.0769"/><text fill="#000000" font-family="sans-serif" font-size="14" font-weight="bold" lengthAdjust="spacing" textLength="45" x="10" y="461.7751">auth0</text></g><!--MD5=[4cc893ac0276f82b007c28daf97cad70]
cluster LiTTiL--><g id="cluster_LiTTiL"><path d="M575.5,6 L622.5,6 A3.75,3.75 0 0 1 625,8.5 L632,28.2969 L944.5,28.2969 A2.5,2.5 0 0 1 947,30.7969 L947,1081.5 A2.5,2.5 0 0 1 944.5,1084 L575.5,1084 A2.5,2.5 0 0 1 573,1081.5 L573,8.5 A2.5,2.5 0 0 1 575.5,6 " style="stroke:#000000;stroke-width:1.5;fill:none;"/><line style="stroke:#000000;stroke-width:1.5;fill:none;" x1="573" x2="632" y1="28.2969" y2="28.2969"/><text fill="#000000" font-family="sans-serif" font-size="14" font-weight="bold" lengthAdjust="spacing" textLength="46" x="577" y="20.9951">LiTTiL</text></g><!--MD5=[c615850150f62cb383bb452372149d14]
class Auth0User--><g id="elem_Auth0User"><rect codeLine="2" fill="#F1F1F1" height="113.1875" id="Auth0User" rx="2.5" ry="2.5" style="stroke:#181818;stroke-width:0.5;" width="168" x="357" y="496.31"/><ellipse cx="400.35" cy="512.31" fill="#ADD1B2" rx="11" ry="11" style="stroke:#181818;stroke-width:1.0;"/><path d="M404.4594,518.31 L396.7406,518.31 L396.7406,505.9194 L404.4594,505.9194 L404.4594,508.0756 L399.1938,508.0756 L399.1938,510.7475 L403.9594,510.7475 L403.9594,512.9038 L399.1938,512.9038 L399.1938,516.1538 L404.4594,516.1538 L404.4594,518.31 Z " fill="#000000"/><text fill="#000000" font-family="sans-serif" font-size="14" lengthAdjust="spacing" textLength="73" x="420.65" y="517.1567">Auth0User</text><line style="stroke:#181818;stroke-width:0.5;" x1="358" x2="524" y1="528.31" y2="528.31"/><rect fill="none" height="6" style="stroke:#C82930;stroke-width:1.0;" width="6" x="365" y="536.31"/><text fill="#000000" font-family="sans-serif" font-size="14" lengthAdjust="spacing" textLength="61" x="377" y="545.3051">id: String</text><line style="stroke:#181818;stroke-width:1.0;stroke-dasharray:1.0,2.0;" x1="358" x2="524" y1="552.6069" y2="552.6069"/><rect fill="none" height="6" style="stroke:#C82930;stroke-width:1.0;" width="6" x="365" y="560.6069"/><text fill="#000000" font-family="sans-serif" font-size="14" lengthAdjust="spacing" textLength="142" x="377" y="569.602">emailAddress: String</text><rect fill="none" height="6" style="stroke:#C82930;stroke-width:1.0;" width="6" x="365" y="576.9038"/><text fill="#000000" font-family="sans-serif" font-size="14" lengthAdjust="spacing" textLength="92" x="377" y="585.8989">roles: Roles[]</text><rect fill="none" height="6" style="stroke:#C82930;stroke-width:1.0;" width="6" x="365" y="593.2006"/><text fill="#000000" font-family="sans-serif" font-size="14" lengthAdjust="spacing" textLength="89" x="377" y="602.1957">locale: String</text></g><path d="M21.5,481.78 L21.5,612.8425 A0,0 0 0 0 21.5,612.8425 L314.5,612.8425 A0,0 0 0 0 314.5,612.8425 L314.5,551.3113 L361,540.4584 L314.5,543.3113 L314.5,491.78 L304.5,481.78 L21.5,481.78 A0,0 0 0 0 21.5,481.78 " fill="#FEFFDD" style="stroke:#181818;stroke-width:0.5;"/><path d="M304.5,481.78 L304.5,491.78 L314.5,491.78 L304.5,481.78 " fill="#FEFFDD" style="stroke:#181818;stroke-width:0.5;"/><text fill="#000000" font-family="sans-serif" font-size="13" lengthAdjust="spacing" textLength="261" x="27.5" y="498.8469">The id which is generated by the provider</text><text fill="#000000" font-family="sans-serif" font-size="13" lengthAdjust="spacing" textLength="265" x="27.5" y="513.9797">should contain a prefix to make sure they</text><text fill="#000000" font-family="sans-serif" font-size="13" lengthAdjust="spacing" textLength="260" x="27.5" y="529.1125">are unique cross platform. Currently only</text><text fill="#000000" font-family="sans-serif" font-size="13" lengthAdjust="spacing" textLength="272" x="27.5" y="544.2453">auth0 is supported which prefixes the id by</text><text fill="#000000" font-family="sans-serif" font-size="13" lengthAdjust="spacing" textLength="136" x="27.5" y="559.3781">default with `auth0|`.</text><text fill="#000000" font-family="sans-serif" font-size="13" lengthAdjust="spacing" textLength="4" x="27.5" y="574.511"> </text><text fill="#000000" font-family="sans-serif" font-size="13" lengthAdjust="spacing" textLength="255" x="27.5" y="589.6438">Also, e-mail address should be a unique</text><text fill="#000000" font-family="sans-serif" font-size="13" lengthAdjust="spacing" textLength="90" x="27.5" y="604.7766">platform wide.</text><!--MD5=[3fd616f346a44cd59a91eb10b19e157c]
class User--><g id="elem_User"><rect codeLine="23" fill="#F1F1F1" height="178.0781" id="User" rx="2.5" ry="2.5" style="stroke:#181818;stroke-width:0.5;" width="199" x="672.5" y="705.84"/><ellipse cx="751.75" cy="721.84" fill="#ADD1B2" rx="11" ry="11" style="stroke:#181818;stroke-width:1.0;"/><path d="M755.8594,727.84 L748.1406,727.84 L748.1406,715.4494 L755.8594,715.4494 L755.8594,717.6056 L750.5938,717.6056 L750.5938,720.2775 L755.3594,720.2775 L755.3594,722.4337 L750.5938,722.4337 L750.5938,725.6837 L755.8594,725.6837 L755.8594,727.84 Z " fill="#000000"/><text fill="#000000" font-family="sans-serif" font-size="14" lengthAdjust="spacing" textLength="32" x="772.25" y="726.6867">User</text><line style="stroke:#181818;stroke-width:0.5;" x1="673.5" x2="870.5" y1="737.84" y2="737.84"/><rect fill="none" height="6" style="stroke:#C82930;stroke-width:1.0;" width="6" x="680.5" y="745.84"/><text fill="#000000" font-family="sans-serif" font-size="14" lengthAdjust="spacing" textLength="61" x="692.5" y="754.8351">id: String</text><line style="stroke:#181818;stroke-width:1.0;stroke-dasharray:1.0,2.0;" x1="673.5" x2="870.5" y1="762.1369" y2="762.1369"/><rect fill="none" height="6" style="stroke:#C82930;stroke-width:1.0;" width="6" x="680.5" y="770.1369"/><text fill="#000000" font-family="sans-serif" font-size="14" lengthAdjust="spacing" textLength="173" x="692.5" y="779.132">provider: Provider:AUTH0</text><rect fill="none" height="6" style="stroke:#C82930;stroke-width:1.0;" width="6" x="680.5" y="786.4337"/><text fill="#000000" font-family="sans-serif" font-size="14" lengthAdjust="spacing" textLength="124" x="692.5" y="795.4289">provider_id: String</text><line style="stroke:#181818;stroke-width:1.0;" x1="673.5" x2="870.5" y1="802.7306" y2="802.7306"/><rect fill="none" height="6" style="stroke:#C82930;stroke-width:1.0;" width="6" x="680.5" y="810.7306"/><text fill="#000000" font-family="sans-serif" font-size="14" lengthAdjust="spacing" textLength="142" x="692.5" y="819.7257">emailAddress: String</text><rect fill="none" height="6" style="stroke:#C82930;stroke-width:1.0;" width="6" x="680.5" y="827.0275"/><text fill="#000000" font-family="sans-serif" font-size="14" lengthAdjust="spacing" textLength="92" x="692.5" y="836.0226">roles: Roles[]</text><line style="stroke:#181818;stroke-width:1.0;" x1="673.5" x2="870.5" y1="843.3244" y2="843.3244"/><rect fill="none" height="6" style="stroke:#C82930;stroke-width:1.0;" width="6" x="680.5" y="851.3244"/><text fill="#000000" font-family="sans-serif" font-size="14" lengthAdjust="spacing" textLength="159" x="692.5" y="860.3195">guestTeacher_id: UUID</text><rect fill="none" height="6" style="stroke:#C82930;stroke-width:1.0;" width="6" x="680.5" y="867.6212"/><text fill="#000000" font-family="sans-serif" font-size="14" lengthAdjust="spacing" textLength="108" x="692.5" y="876.6164">school_id: UUID</text></g><!--MD5=[328024171cea4dedb8d5b683ea979b17]
class GuestTeacher--><g id="elem_GuestTeacher"><rect codeLine="36" fill="#F1F1F1" height="129.4844" id="GuestTeacher" rx="2.5" ry="2.5" style="stroke:#181818;stroke-width:0.5;" width="229" x="597.5" y="488.31"/><ellipse cx="658.25" cy="504.31" fill="#ADD1B2" rx="11" ry="11" style="stroke:#181818;stroke-width:1.0;"/><path d="M662.3594,510.31 L654.6406,510.31 L654.6406,497.9194 L662.3594,497.9194 L662.3594,500.0756 L657.0938,500.0756 L657.0938,502.7475 L661.8594,502.7475 L661.8594,504.9037 L657.0938,504.9037 L657.0938,508.1537 L662.3594,508.1537 L662.3594,510.31 Z " fill="#000000"/><text fill="#000000" font-family="sans-serif" font-size="14" lengthAdjust="spacing" textLength="99" x="678.75" y="509.1567">GuestTeacher</text><line style="stroke:#181818;stroke-width:0.5;" x1="598.5" x2="825.5" y1="520.31" y2="520.31"/><rect fill="none" height="6" style="stroke:#C82930;stroke-width:1.0;" width="6" x="605.5" y="528.31"/><text fill="#000000" font-family="sans-serif" font-size="14" lengthAdjust="spacing" textLength="55" x="617.5" y="537.3051">id: UUID</text><line style="stroke:#181818;stroke-width:1.0;stroke-dasharray:1.0,2.0;" x1="598.5" x2="825.5" y1="544.6069" y2="544.6069"/><rect fill="none" height="6" style="stroke:#C82930;stroke-width:1.0;" width="6" x="605.5" y="552.6069"/><text fill="#000000" font-family="sans-serif" font-size="14" lengthAdjust="spacing" textLength="114" x="617.5" y="561.602">firstName: String</text><rect fill="none" height="6" style="stroke:#C82930;stroke-width:1.0;" width="6" x="605.5" y="568.9038"/><text fill="#000000" font-family="sans-serif" font-size="14" lengthAdjust="spacing" textLength="110" x="617.5" y="577.8989">surname: String</text><rect fill="none" height="6" style="stroke:#C82930;stroke-width:1.0;" width="6" x="605.5" y="585.2006"/><text fill="#000000" font-family="sans-serif" font-size="14" lengthAdjust="spacing" textLength="121" x="617.5" y="594.1957">location: Location</text><rect fill="none" height="6" style="stroke:#C82930;stroke-width:1.0;" width="6" x="605.5" y="601.4975"/><text fill="#000000" font-family="sans-serif" font-size="14" lengthAdjust="spacing" textLength="203" x="617.5" y="610.4926">availability: Set&lt;DayOfWeek&gt;</text></g><!--MD5=[10a9fff9df9a76a22f65fd5d58adb785]
class School--><g id="elem_School"><rect codeLine="45" fill="#F1F1F1" height="113.1875" id="School" rx="2.5" ry="2.5" style="stroke:#181818;stroke-width:0.5;" width="216" x="707" y="314.78"/><ellipse cx="787.25" cy="330.78" fill="#ADD1B2" rx="11" ry="11" style="stroke:#181818;stroke-width:1.0;"/><path d="M791.3594,336.78 L783.6406,336.78 L783.6406,324.3894 L791.3594,324.3894 L791.3594,326.5456 L786.0938,326.5456 L786.0938,329.2175 L790.8594,329.2175 L790.8594,331.3738 L786.0938,331.3738 L786.0938,334.6238 L791.3594,334.6238 L791.3594,336.78 Z " fill="#000000"/><text fill="#000000" font-family="sans-serif" font-size="14" lengthAdjust="spacing" textLength="47" x="807.75" y="335.6267">School</text><line style="stroke:#181818;stroke-width:0.5;" x1="708" x2="922" y1="346.78" y2="346.78"/><rect fill="none" height="6" style="stroke:#C82930;stroke-width:1.0;" width="6" x="715" y="354.78"/><text fill="#000000" font-family="sans-serif" font-size="14" lengthAdjust="spacing" textLength="55" x="727" y="363.7751">id: UUID</text><line style="stroke:#181818;stroke-width:1.0;stroke-dasharray:1.0,2.0;" x1="708" x2="922" y1="371.0769" y2="371.0769"/><rect fill="none" height="6" style="stroke:#C82930;stroke-width:1.0;" width="6" x="715" y="379.0769"/><text fill="#000000" font-family="sans-serif" font-size="14" lengthAdjust="spacing" textLength="88" x="727" y="388.072">name: String</text><rect fill="none" height="6" style="stroke:#C82930;stroke-width:1.0;" width="6" x="715" y="395.3738"/><text fill="#000000" font-family="sans-serif" font-size="14" lengthAdjust="spacing" textLength="190" x="727" y="404.3689">contactPersonName: String</text><rect fill="none" height="6" style="stroke:#C82930;stroke-width:1.0;" width="6" x="715" y="411.6706"/><text fill="#000000" font-family="sans-serif" font-size="14" lengthAdjust="spacing" textLength="121" x="727" y="420.6657">location: Location</text></g><!--MD5=[4f1f3706c1a355a8488e154afcaed5df]
class Location--><g id="elem_Location"><rect codeLine="53" fill="#F1F1F1" height="145.7813" id="Location" rx="2.5" ry="2.5" style="stroke:#181818;stroke-width:0.5;" width="154" x="662" y="41"/><ellipse cx="705.8" cy="57" fill="#ADD1B2" rx="11" ry="11" style="stroke:#181818;stroke-width:1.0;"/><path d="M709.9094,63 L702.1906,63 L702.1906,50.6094 L709.9094,50.6094 L709.9094,52.7656 L704.6438,52.7656 L704.6438,55.4375 L709.4094,55.4375 L709.4094,57.5938 L704.6438,57.5938 L704.6438,60.8438 L709.9094,60.8438 L709.9094,63 Z " fill="#000000"/><text fill="#000000" font-family="sans-serif" font-size="14" lengthAdjust="spacing" textLength="58" x="726.2" y="61.8467">Location</text><line style="stroke:#181818;stroke-width:0.5;" x1="663" x2="815" y1="73" y2="73"/><rect fill="none" height="6" style="stroke:#C82930;stroke-width:1.0;" width="6" x="670" y="81"/><text fill="#000000" font-family="sans-serif" font-size="14" lengthAdjust="spacing" textLength="55" x="682" y="89.9951">id: UUID</text><rect fill="none" height="6" style="stroke:#C82930;stroke-width:1.0;" width="6" x="670" y="97.2969"/><text fill="#000000" font-family="sans-serif" font-size="14" lengthAdjust="spacing" textLength="101" x="682" y="106.292">country: String</text><rect fill="none" height="6" style="stroke:#C82930;stroke-width:1.0;" width="6" x="670" y="113.5938"/><text fill="#000000" font-family="sans-serif" font-size="14" lengthAdjust="spacing" textLength="105" x="682" y="122.5889">address: String</text><rect fill="none" height="6" style="stroke:#C82930;stroke-width:1.0;" width="6" x="670" y="129.8906"/><text fill="#000000" font-family="sans-serif" font-size="14" lengthAdjust="spacing" textLength="128" x="682" y="138.8857">postalCode: String</text><rect fill="none" height="6" style="stroke:#C82930;stroke-width:1.0;" width="6" x="670" y="146.1875"/><text fill="#000000" font-family="sans-serif" font-size="14" lengthAdjust="spacing" textLength="123" x="682" y="155.1826">longitude: Integer</text><rect fill="none" height="6" style="stroke:#C82930;stroke-width:1.0;" width="6" x="670" y="162.4844"/><text fill="#000000" font-family="sans-serif" font-size="14" lengthAdjust="spacing" textLength="109" x="682" y="171.4795">latitude: Integer</text><line style="stroke:#181818;stroke-width:0.5;" x1="663" x2="815" y1="178.7813" y2="178.7813"/></g><!--MD5=[cd2541e6bf5493292e8c4c32e3dbddc6]
class UserSetting--><g id="elem_UserSetting"><rect codeLine="62" fill="#F1F1F1" height="105.1563" id="UserSetting" rx="2.5" ry="2.5" style="stroke:#181818;stroke-width:0.5;" width="113" x="817.5" y="962.84"/><ellipse cx="832.5" cy="982.9728" fill="#ADD1B2" rx="11" ry="11" style="stroke:#181818;stroke-width:1.0;"/><path d="M836.6094,988.9728 L828.8906,988.9728 L828.8906,976.5822 L836.6094,976.5822 L836.6094,978.7384 L831.3438,978.7384 L831.3438,981.4103 L836.1094,981.4103 L836.1094,983.5666 L831.3438,983.5666 L831.3438,986.8166 L836.6094,986.8166 L836.6094,988.9728 Z " fill="#000000"/><text fill="#000000" font-family="sans-serif" font-size="12" font-style="italic" lengthAdjust="spacing" textLength="85" x="844.5" y="978.9787">«Serializable»</text><text fill="#000000" font-family="sans-serif" font-size="14" lengthAdjust="spacing" textLength="81" x="846.5" y="994.8039">UserSetting</text><line style="stroke:#181818;stroke-width:0.5;" x1="818.5" x2="929.5" y1="1003.1056" y2="1003.1056"/><text fill="#000000" font-family="sans-serif" font-size="14" lengthAdjust="spacing" textLength="99" x="823.5" y="1020.1007">user_id: String</text><text fill="#000000" font-family="sans-serif" font-size="14" lengthAdjust="spacing" textLength="73" x="823.5" y="1036.3976">key: String</text><line style="stroke:#181818;stroke-width:1.0;stroke-dasharray:1.0,2.0;" x1="818.5" x2="929.5" y1="1043.6994" y2="1043.6994"/><text fill="#000000" font-family="sans-serif" font-size="14" lengthAdjust="spacing" textLength="85" x="823.5" y="1060.6945">value: String</text></g><g id="elem_GMN12"><path d="M589.5,980.16 L589.5,1050.6912 A0,0 0 0 0 589.5,1050.6912 L782.5,1050.6912 A0,0 0 0 0 782.5,1050.6912 L782.5,1019.42 L817.09,1015.42 L782.5,1011.42 L782.5,990.16 L772.5,980.16 L589.5,980.16 A0,0 0 0 0 589.5,980.16 " fill="#FEFFDD" style="stroke:#181818;stroke-width:0.5;"/><path d="M772.5,980.16 L772.5,990.16 L782.5,990.16 L772.5,980.16 " fill="#FEFFDD" style="stroke:#181818;stroke-width:0.5;"/><text fill="#000000" font-family="sans-serif" font-size="13" lengthAdjust="spacing" textLength="171" x="595.5" y="997.2269">Settings are really generic.</text><text fill="#000000" font-family="sans-serif" font-size="13" lengthAdjust="spacing" textLength="172" x="595.5" y="1012.3597">The frontend can store any</text><text fill="#000000" font-family="sans-serif" font-size="13" lengthAdjust="spacing" textLength="120" x="595.5" y="1027.4925">setting they like by</text><text fill="#000000" font-family="sans-serif" font-size="13" lengthAdjust="spacing" textLength="142" x="595.5" y="1042.6253">introducing a new key.</text></g><!--MD5=[353f5f99e2d3da2b37ecdc1789cdfcee]
link Auth0User to User--><g id="link_Auth0User_User"><path codeLine="76" d="M526,564.31 C568.21,564.31 551.87,610.3 573,646.84 C616.07,721.35 584.94,813.84 671,813.84 " fill="none" id="Auth0User-User" style="stroke:#181818;stroke-width:1.0;"/></g><!--MD5=[b478f64284981d370d6912e913e092fe]
reverse link GuestTeacher to User--><g id="link_GuestTeacher_User"><path codeLine="78" d="M841.99,535.85 C861.09,548.47 844.3,592.03 827,620.31 C786.38,686.71 712.46,635.35 672,701.84 C636.89,759.56 603.44,853.84 671,853.84 " fill="none" id="GuestTeacher-backto-User" style="stroke:#181818;stroke-width:1.0;"/><polygon fill="#181818" points="829.47,532.68,834.3065,538.0287,841.1039,535.6215,836.2674,530.2728,829.47,532.68" style="stroke:#181818;stroke-width:1.0;"/><text fill="#000000" font-family="sans-serif" font-size="13" lengthAdjust="spacing" textLength="24" x="781" y="667.9069">0..1</text></g><!--MD5=[835d1aebe0ca62fed63526616f429db3]
reverse link School to User--><g id="link_School_User"><path codeLine="79" d="M938.1,361.66 C1033.53,402.71 982.12,869.84 873,869.84 " fill="none" id="School-backto-User" style="stroke:#181818;stroke-width:1.0;"/><polygon fill="#181818" points="925.48,359.08,930.5592,364.1988,937.2378,361.479,932.1585,356.3603,925.48,359.08" style="stroke:#181818;stroke-width:1.0;"/><text fill="#000000" font-family="sans-serif" font-size="13" lengthAdjust="spacing" textLength="24" x="989" y="556.8769">0..1</text></g><!--MD5=[88783be2807fa3f74c0033bf634d7cda]
link Location to GuestTeacher--><g id="link_Location_GuestTeacher"><path codeLine="81" d="M702.1,187.05 C636.34,319.58 513.2,588.31 596,588.31 " fill="none" id="Location-GuestTeacher" style="stroke:#181818;stroke-width:1.0;"/><text fill="#000000" font-family="sans-serif" font-size="13" lengthAdjust="spacing" textLength="24" x="664" y="276.8469">1..1</text></g><!--MD5=[f4bc0067cbbd6d6d1317d5c836154d4c]
link Location to School--><g id="link_Location_School"><path codeLine="82" d="M741.75,187.13 C740.86,216.83 737.16,251.14 727,280.78 C721.81,295.94 711.72,295.47 707,310.78 C703.6,321.83 694.44,414.78 706,414.78 " fill="none" id="Location-School" style="stroke:#181818;stroke-width:1.0;"/><text fill="#000000" font-family="sans-serif" font-size="13" lengthAdjust="spacing" textLength="24" x="740" y="229.8469">1..1</text></g><!--MD5=[2f4cdd290b33a90fe582187684b38611]
link User to UserSetting--><g id="link_User_UserSetting"><path codeLine="84" d="M814.22,885.74 C824.16,907.12 834.55,929.49 843.83,949.47 " fill="none" id="User-to-UserSetting" style="stroke:#181818;stroke-width:1.0;"/><polygon fill="#181818" points="849.26,961.17,850.3616,954.0435,844.2071,950.2857,843.1054,957.4122,849.26,961.17" style="stroke:#181818;stroke-width:1.0;"/><text fill="#000000" font-family="sans-serif" font-size="13" lengthAdjust="spacing" textLength="23" x="836" y="928.9069">1..*</text></g><!--MD5=[429ebe114ad5b68397ba96e330fc0ac1]
@startuml
package auth0 {
    entity Auth0User {
        - id: String
        ..
        - emailAddress: String
        - roles: Roles[]
        - locale: String
    }

    note left of Auth0User::id
        The id which is generated by the provider
        should contain a prefix to make sure they
        are unique cross platform. Currently only
        auth0 is supported which prefixes the id by
        default with `auth0|`.

        Also, e-mail address should be a unique
        platform wide.
    end note
}

package LiTTiL {
    entity User {
        - id: String
        ..
        - provider: Provider:AUTH0
        - provider_id: String
        - -
        - emailAddress: String
        - roles: Roles[]
        - -
        - guestTeacher_id: UUID
        - school_id: UUID
    }

    entity GuestTeacher {
        - id: UUID
        ..
        - firstName: String
        - surname: String
        - location: Location
        - availability: Set<DayOfWeek>
    }

    entity School {
        - id: UUID
        ..
        - name: String
        - contactPersonName: String
        - location: Location
    }

    entity Location {
        - id: UUID
        - country: String
        - address: String
        - postalCode: String
        - longitude: Integer
        - latitude: Integer
    }

    entity UserSetting <<Serializable>>{
        user_id: String
        key: String
        ..
        value: String
    }

    note left of UserSetting
        Settings are really generic.
        The frontend can store any
        setting they like by
        introducing a new key.
    end note
}
    Auth0User::emailAddress - - User::emailAddress

    GuestTeacher::id *- - User::guestTeacher_id: "0..1"
    School::id *- - User::school_id: "0..1"

    Location - - - GuestTeacher::location: "1..1"
    Location - - School::location : "1..1"

    User - -* UserSetting : "1..*"
@enduml

PlantUML version 1.2022.5(Sat Apr 30 10:55:52 GMT 2022)
(GPL source distribution)
Java Runtime: OpenJDK Runtime Environment
JVM: OpenJDK 64-Bit Server VM
Default Encoding: UTF-8
Language: en
Country: US
--></g></svg>